<svg viewBox="0 0 280 600" xmlns="http://www.w3.org/2000/svg" preserveAspectRatio="xMidYMid meet">
  <!-- Kopf -->
  <ellipse cx="140" cy="90" rx="35" ry="40" fill="none" stroke="#1a1a1a" stroke-width="2.2"/>

  <!-- Haare -->
  <path d="M 105 70 Q 105 50 140 45 Q 175 50 175 70" fill="none" stroke="#1a1a1a" stroke-width="2.2" stroke-linecap="round"/>
  <path d="M 108 60 Q 110 55 115 58" fill="none" stroke="#1a1a1a" stroke-width="1.8"/>
  <path d="M 125 50 Q 128 48 132 52" fill="none" stroke="#1a1a1a" stroke-width="1.8"/>
  <path d="M 150 50 Q 152 48 156 52" fill="none" stroke="#1a1a1a" stroke-width="1.8"/>
  <path d="M 168 58 Q 170 55 175 60" fill="none" stroke="#1a1a1a" stroke-width="1.8"/>

  <!-- Augen -->
  <ellipse cx="123" cy="85" rx="7" ry="9" fill="none" stroke="#1a1a1a" stroke-width="2.2"/>
  <ellipse cx="157" cy="85" rx="7" ry="9" fill="none" stroke="#1a1a1a" stroke-width="2.2"/>
  <circle cx="123" cy="86" r="3" fill="#1a1a1a"/>
  <circle cx="157" cy="86" r="3" fill="#1a1a1a"/>

  <!-- Brille -->
  <rect x="110" y="80" width="16" height="14" rx="2" fill="none" stroke="#1a1a1a" stroke-width="2.2"/>
  <rect x="154" y="80" width="16" height="14" rx="2" fill="none" stroke="#1a1a1a" stroke-width="2.2"/>
  <line x1="126" y1="87" x2="134" y2="87" stroke="#1a1a1a" stroke-width="1.8"/>
  <line x1="140" y1="82" x2="140" y2="92" stroke="#1a1a1a" stroke-width="1.6"/>

  <!-- Nase -->
  <path d="M 140 90 L 140 110" fill="none" stroke="#1a1a1a" stroke-width="1.8"/>
  <path d="M 138 108 L 135 112" fill="none" stroke="#1a1a1a" stroke-width="1.8"/>
  <path d="M 142 108 L 145 112" fill="none" stroke="#1a1a1a" stroke-width="1.8"/>

  <!-- Mund -->
  <path d="M 125 120 Q 140 128 155 120" fill="none" stroke="#1a1a1a" stroke-width="2" stroke-linecap="round"/>

  <!-- Kinn/Gesicht -->
  <path d="M 105 110 L 105 130 Q 105 135 110 138" fill="none" stroke="#1a1a1a" stroke-width="2.2"/>
  <path d="M 175 110 L 175 130 Q 175 135 170 138" fill="none" stroke="#1a1a1a" stroke-width="2.2"/>

  <!-- Hals -->
  <path d="M 125 135 L 125 155" fill="none" stroke="#1a1a1a" stroke-width="2.2"/>
  <path d="M 155 135 L 155 155" fill="none" stroke="#1a1a1a" stroke-width="2.2"/>

  <!-- Hemd/Krawatte -->
  <path d="M 120 155 L 120 200 L 160 200 L 160 155" fill="none" stroke="#1a1a1a" stroke-width="2.2"/>
  <path d="M 135 155 L 135 200" fill="none" stroke="#1a1a1a" stroke-width="1.8"/>
  <path d="M 145 155 L 145 200" fill="none" stroke="#1a1a1a" stroke-width="1.8"/>

  <!-- Krawatte -->
  <path d="M 140 160 L 138 185 L 140 190 L 142 185 Z" fill="none" stroke="#1a1a1a" stroke-width="2.2"/>
  <line x1="138" y1="170" x2="142" y2="170" stroke="#1a1a1a" stroke-width="1.6"/>
  <line x1="137" y1="180" x2="143" y2="180" stroke="#1a1a1a" stroke-width="1.6"/>

  <!-- Jacket -->
  <path d="M 95 155 L 100 200 L 110 240 L 115 280" fill="none" stroke="#1a1a1a" stroke-width="2.2"/>
  <path d="M 185 155 L 180 200 L 170 240 L 165 280" fill="none" stroke="#1a1a1a" stroke-width="2.2"/>

  <!-- Jacket Lapels -->
  <path d="M 120 165 L 110 200" fill="none" stroke="#1a1a1a" stroke-width="2.2"/>
  <path d="M 160 165 L 170 200" fill="none" stroke="#1a1a1a" stroke-width="2.2"/>

  <!-- Jacket Button -->
  <circle cx="140" cy="210" r="2.5" fill="#1a1a1a"/>
  <circle cx="140" cy="240" r="2.5" fill="#1a1a1a"/>

  <!-- Tasche rechts oben -->
  <path d="M 160 180 L 175 175 L 175 200 L 160 200" fill="none" stroke="#1a1a1a" stroke-width="2.2"/>
  <path d="M 170 180 L 172 185" fill="none" stroke="#1a1a1a" stroke-width="1.6"/>

  <!-- Linker Arm -->
  <path d="M 100 180 L 70 200 L 60 250" fill="none" stroke="#1a1a1a" stroke-width="2.2" stroke-linecap="round"/>
  <path d="M 75 195 L 72 215" fill="none" stroke="#1a1a1a" stroke-width="1.8"/>

  <!-- Rechter Arm -->
  <path d="M 180 180 L 210 195 L 215 240" fill="none" stroke="#1a1a1a" stroke-width="2.2" stroke-linecap="round"/>
  <path d="M 205 200 L 212 225" fill="none" stroke="#1a1a1a" stroke-width="1.8"/>

  <!-- Papier/Dokument in rechter Hand -->
  <rect x="208" y="235" width="30" height="40" rx="2" fill="none" stroke="#1a1a1a" stroke-width="2.2"/>
  <line x1="212" y1="245" x2="232" y2="245" stroke="#1a1a1a" stroke-width="1.6"/>
  <line x1="212" y1="255" x2="232" y2="255" stroke="#1a1a1a" stroke-width="1.6"/>
  <line x1="212" y1="265" x2="228" y2="265" stroke="#1a1a1a" stroke-width="1.6"/>

  <!-- Linke Hand -->
  <ellipse cx="60" cy="260" rx="8" ry="12" fill="none" stroke="#1a1a1a" stroke-width="2.2"/>
  <path d="M 55 250 L 52 265" fill="none" stroke="#1a1a1a" stroke-width="1.8"/>
  <path d="M 60 248 L 60 268" fill="none" stroke="#1a1a1a" stroke-width="1.8"/>
  <path d="M 65 250 L 68 265" fill="none" stroke="#1a1a1a" stroke-width="1.8"/>

  <!-- Linke Hosentasche -->
  <path d="M 105 250 L 105 280" fill="none" stroke="#1a1a1a" stroke-width="1.8"/>
  <path d="M 110 260 L 110 285" fill="none" stroke="#1a1a1a" stroke-width="1.8"/>

  <!-- Hose -->
  <path d="M 110 280 L 105 380" fill="none" stroke="#1a1a1a" stroke-width="2.2"/>
  <path d="M 170 280 L 175 380" fill="none" stroke="#1a1a1a" stroke-width="2.2"/>
  <path d="M 115 280 L 110 380" fill="none" stroke="#1a1a1a" stroke-width="2.2"/>
  <path d="M 165 280 L 170 380" fill="none" stroke="#1a1a1a" stroke-width="2.2"/>

  <!-- Hosennähte -->
  <path d="M 125 300 L 123 380" fill="none" stroke="#1a1a1a" stroke-width="1.6"/>
  <path d="M 155 300 L 157 380" fill="none" stroke="#1a1a1a" stroke-width="1.6"/>

  <!-- Schuhe -->
  <ellipse cx="105" cy="390" rx="12" ry="8" fill="none" stroke="#1a1a1a" stroke-width="2.2"/>
  <ellipse cx="175" cy="390" rx="12" ry="8" fill="none" stroke="#1a1a1a" stroke-width="2.2"/>
  <path d="M 98 390 L 95 405" fill="none" stroke="#1a1a1a" stroke-width="1.8"/>
  <path d="M 112 390 L 115 405" fill="none" stroke="#1a1a1a" stroke-width="1.8"/>
  <path d="M 168 390 L 165 405" fill="none" stroke="#1a1a1a" stroke-width="1.8"/>
  <path d="M 182 390 L 185 405" fill="none" stroke="#1a1a1a" stroke-width="1.8"/>
  <path d="M 95 405 L 115 410 L 115 405" fill="none" stroke="#1a1a1a" stroke-width="2"/>
  <path d="M 165 405 L 185 410 L 185 405" fill="none" stroke="#1a1a1a" stroke-width="2"/>

  <!-- Socken -->
  <line x1="103" y1="380" x2="100" y2="388" stroke="#1a1a1a" stroke-width="1.8"/>
  <line x1="107" y1="380" x2="110" y2="388" stroke="#1a1a1a" stroke-width="1.8"/>
  <line x1="173" y1="380" x2="170" y2="388" stroke="#1a1a1a" stroke-width="1.8"/>
  <line x1="177" y1="380" x2="180" y2="388" stroke="#1a1a1a" stroke-width="1.8"/>
</svg>